# xmcd
# 
# Track frame offsets:
#     150
#     21021
#     41340
#     54275
# 
# Disc length: 1000
# 
# Revision: 0
# Processed by: cddbd v1.5.2PL0 Copyright (c) Steve Scherf et al.
# Submitted via: fre:ac v1.1beta1pre3
# 
DISCID=2303e604
DTITLE=上坂すみれ - パララックス・ビュー
DYEAR=2014
DGENRE=
TTITLE0=パララックス・ビュー
TTITLE1=すみれコード
TTITLE2=無窮なり趣味者集団
TTITLE3=パララックス・ビュー off vocal ver.
EXTD=
EXTT0=
EXTT1=
EXTT2=
EXTT3=
PLAYORDER=
